HIERARCHY
ROOT Model
{
	OFFSET 0 0 0
	CHANNELS 6 Xposition Yposition Zposition Zrotation Xrotation Yrotation
	JOINT Model1
	{
		OFFSET 0 -2.25479 2.99383
		CHANNELS 3 Zrotation Xrotation Yrotation
		JOINT Model2
		{
			OFFSET 12.111 0 0
			CHANNELS 3 Zrotation Xrotation Yrotation
			JOINT Model3
			{
				OFFSET 11.5502 0 0
				CHANNELS 3 Zrotation Xrotation Yrotation
				JOINT Model4
				{
					OFFSET 11.781 0 0
					CHANNELS 3 Zrotation Xrotation Yrotation
					JOINT Model5
					{
						OFFSET 20.0601 0 0
						CHANNELS 3 Zrotation Xrotation Yrotation
						JOINT Model6
						{
							OFFSET 11.1962 0 0
							CHANNELS 3 Zrotation Xrotation Yrotation
							End Site
							{
								OFFSET 0 0 0
							}
						}
					}
					JOINT Model7
					{
						OFFSET 10.8223 0.417534 3.51114
						CHANNELS 3 Zrotation Xrotation Yrotation
						JOINT Model8
						{
							OFFSET -6.07943 0 0
							CHANNELS 3 Zrotation Xrotation Yrotation
							JOINT Model9
							{
								OFFSET -0.277416 10.39 -0.0512447
								CHANNELS 3 Zrotation Xrotation Yrotation
								JOINT Model10
								{
									OFFSET -3.4391 -0.282043 1.86678
									CHANNELS 3 Zrotation Xrotation Yrotation
									JOINT Model11
									{
										OFFSET 13.0269 0 0
										CHANNELS 3 Zrotation Xrotation Yrotation
										JOINT Model12
										{
											OFFSET 10.8866 0 0
											CHANNELS 3 Zrotation Xrotation Yrotation
											JOINT Model13
											{
												OFFSET 16.7317 0 0
												CHANNELS 3 Zrotation Xrotation Yrotation
												JOINT Model14
												{
													OFFSET 11.8292 0 0
													CHANNELS 3 Zrotation Xrotation Yrotation
													JOINT Model15
													{
														OFFSET 4.82751 -3.73566 -0.836517
														CHANNELS 3 Zrotation Xrotation Yrotation
														JOINT Model16
														{
															OFFSET 3.75311 -0.0582886 -0.0186462
															CHANNELS 3 Zrotation Xrotation Yrotation
															JOINT Model17
															{
																OFFSET 2.88688 0.0192337 0.0148029
																CHANNELS 3 Zrotation Xrotation Yrotation
																End Site
																{
																	OFFSET 0 0 0
																}
															}
														}
													}
													JOINT Model18
													{
														OFFSET 9.72197 -3.06458 0.238768
														CHANNELS 3 Zrotation Xrotation Yrotation
														JOINT Model19
														{
															OFFSET 4.61131 0 0
															CHANNELS 3 Zrotation Xrotation Yrotation
															JOINT Model20
															{
																OFFSET 2.8969 -7.62939e-006 0
																CHANNELS 3 Zrotation Xrotation Yrotation
																End Site
																{
																	OFFSET 0 0 0
																}
															}
														}
													}
													JOINT Model21
													{
														OFFSET 9.54431 -0.745064 0.588938
														CHANNELS 3 Zrotation Xrotation Yrotation
														JOINT Model22
														{
															OFFSET 5.33978 0 0
															CHANNELS 3 Zrotation Xrotation Yrotation
															JOINT Model23
															{
																OFFSET 3.03619 7.62939e-006 0
																CHANNELS 3 Zrotation Xrotation Yrotation
																End Site
																{
																	OFFSET 0 0 0
																}
															}
														}
													}
													JOINT Model24
													{
														OFFSET 9.47759 1.51286 0.485121
														CHANNELS 3 Zrotation Xrotation Yrotation
														JOINT Model25
														{
															OFFSET 4.96136 7.62939e-006 0
															CHANNELS 3 Zrotation Xrotation Yrotation
															JOINT Model26
															{
																OFFSET 2.51966 0 0
																CHANNELS 3 Zrotation Xrotation Yrotation
																End Site
																{
																	OFFSET 0 0 0
																}
															}
														}
													}
													JOINT Model27
													{
														OFFSET 9.34247 3.34117 -0.239281
														CHANNELS 3 Zrotation Xrotation Yrotation
														JOINT Model28
														{
															OFFSET 3.2826 2.28882e-005 0
															CHANNELS 3 Zrotation Xrotation Yrotation
															JOINT Model29
															{
																OFFSET 2.1292 0 0
																CHANNELS 3 Zrotation Xrotation Yrotation
																End Site
																{
																	OFFSET 0 0 0
																}
															}
														}
													}
												}
											}
										}
									}
								}
							}
						}
					}
					JOINT Model30
					{
						OFFSET 10.8223 0.4179 -3.51107
						CHANNELS 3 Zrotation Xrotation Yrotation
						JOINT Model31
						{
							OFFSET 6.07943 0 0
							CHANNELS 3 Zrotation Xrotation Yrotation
							JOINT Model32
							{
								OFFSET 0.277416 -10.39 0.0512447
								CHANNELS 3 Zrotation Xrotation Yrotation
								JOINT Model33
								{
									OFFSET 3.4391 0.282043 -1.86678
									CHANNELS 3 Zrotation Xrotation Yrotation
									JOINT Model34
									{
										OFFSET -13.0269 0 0
										CHANNELS 3 Zrotation Xrotation Yrotation
										JOINT Model35
										{
											OFFSET -10.8866 0 0
											CHANNELS 3 Zrotation Xrotation Yrotation
											JOINT Model36
											{
												OFFSET -16.7317 0 0
												CHANNELS 3 Zrotation Xrotation Yrotation
												JOINT Model37
												{
													OFFSET -11.8292 0 0
													CHANNELS 3 Zrotation Xrotation Yrotation
													JOINT Model38
													{
														OFFSET -4.82751 3.73566 0.836516
														CHANNELS 3 Zrotation Xrotation Yrotation
														JOINT Model39
														{
															OFFSET -3.75311 0.0582886 0.0186434
															CHANNELS 3 Zrotation Xrotation Yrotation
															JOINT Model40
															{
																OFFSET -2.88688 -0.0192337 -0.014802
																CHANNELS 3 Zrotation Xrotation Yrotation
																End Site
																{
																	OFFSET 0 0 0
																}
															}
														}
													}
													JOINT Model41
													{
														OFFSET -9.72197 3.06459 -0.23877
														CHANNELS 3 Zrotation Xrotation Yrotation
														JOINT Model42
														{
															OFFSET -4.6113 0 0
															CHANNELS 3 Zrotation Xrotation Yrotation
															JOINT Model43
															{
																OFFSET -2.8969 0 0
																CHANNELS 3 Zrotation Xrotation Yrotation
																End Site
																{
																	OFFSET 0 0 0
																}
															}
														}
													}
													JOINT Model44
													{
														OFFSET -9.5443 0.745064 -0.588939
														CHANNELS 3 Zrotation Xrotation Yrotation
														JOINT Model45
														{
															OFFSET -5.33978 0 0
															CHANNELS 3 Zrotation Xrotation Yrotation
															JOINT Model46
															{
																OFFSET -3.03619 -1.52588e-005 0
																CHANNELS 3 Zrotation Xrotation Yrotation
																End Site
																{
																	OFFSET 0 0 0
																}
															}
														}
													}
													JOINT Model47
													{
														OFFSET -9.47759 -1.51286 -0.485122
														CHANNELS 3 Zrotation Xrotation Yrotation
														JOINT Model48
														{
															OFFSET -4.96136 -1.52588e-005 0
															CHANNELS 3 Zrotation Xrotation Yrotation
															JOINT Model49
															{
																OFFSET -2.51966 0 0
																CHANNELS 3 Zrotation Xrotation Yrotation
																End Site
																{
																	OFFSET 0 0 0
																}
															}
														}
													}
													JOINT Model50
													{
														OFFSET -9.34246 -3.34118 0.239278
														CHANNELS 3 Zrotation Xrotation Yrotation
														JOINT Model51
														{
															OFFSET -3.2826 -2.28882e-005 0
															CHANNELS 3 Zrotation Xrotation Yrotation
															JOINT Model52
															{
																OFFSET -2.1292 0 0
																CHANNELS 3 Zrotation Xrotation Yrotation
																End Site
																{
																	OFFSET 0 0 0
																}
															}
														}
													}
												}
											}
										}
									}
								}
							}
						}
					}
				}
			}
		}
	}
	JOINT Model53
	{
		OFFSET 4.38026 -2.14632 -1.11516
		CHANNELS 3 Zrotation Xrotation Yrotation
		JOINT Model54
		{
			OFFSET 0 0 4.94999
			CHANNELS 3 Zrotation Xrotation Yrotation
			JOINT Model55
			{
				OFFSET 18.5642 0 0
				CHANNELS 3 Zrotation Xrotation Yrotation
				JOINT Model56
				{
					OFFSET 21.2884 0 1.14441e-005
					CHANNELS 3 Zrotation Xrotation Yrotation
					JOINT Model57
					{
						OFFSET 30.261 0 0
						CHANNELS 3 Zrotation Xrotation Yrotation
						JOINT Model58
						{
							OFFSET 11.7259 0 0
							CHANNELS 3 Zrotation Xrotation Yrotation
							JOINT Model59
							{
								OFFSET 10.682 0 0
								CHANNELS 3 Zrotation Xrotation Yrotation
								End Site
								{
									OFFSET 0 0 0
								}
							}
						}
					}
				}
			}
		}
	}
	JOINT Model60
	{
		OFFSET -4.38026 -2.14632 -1.11516
		CHANNELS 3 Zrotation Xrotation Yrotation
		JOINT Model61
		{
			OFFSET 0 0 -4.94999
			CHANNELS 3 Zrotation Xrotation Yrotation
			JOINT Model62
			{
				OFFSET -18.5642 0 0
				CHANNELS 3 Zrotation Xrotation Yrotation
				JOINT Model63
				{
					OFFSET -21.2884 0 -1.19209e-005
					CHANNELS 3 Zrotation Xrotation Yrotation
					JOINT Model64
					{
						OFFSET -30.261 0 0
						CHANNELS 3 Zrotation Xrotation Yrotation
						JOINT Model65
						{
							OFFSET -11.7259 0 0
							CHANNELS 3 Zrotation Xrotation Yrotation
							JOINT Model66
							{
								OFFSET -10.682 0 0
								CHANNELS 3 Zrotation Xrotation Yrotation
								End Site
								{
									OFFSET 0 0 0
								}
							}
						}
					}
				}
			}
		}
	}
}
MOTION
Frames: 4
Frame Time: 0.033333
1.37207 174.863 16.1252 102.344 -86.9013 103.729 -180 4.29621e-031 -90 -0.698598 -0.305383 0.041686 -1.397 -0.61169 0.0796477 -1.397 -0.611253 0.0796584 25.6266 2.13286 5.40414 -17.0224 2.24235 -0.405581 120.092 75.5343 58.4939 -12.6177 -8.6816 -1.24766 -167.277 84.4999 48.8109 164.13 -10.811 -10.1498 8.56848e-006 8.27534 3.11312e-005 1.8506 -40.0463 2.83897 3.42449e-006 -60.0578 2.46037e-006 4.86758 0.737529 17.235 -72.0648 39.0385 39.3397 33.3638 2.10362 14.835 0.588947 0.308273 6.35287 -99.6409 81.413 100.35 -0.0181409 2.77855e-005 -0.117315 -0.124139 0.00241113 -0.799296 -79.8382 79.5773 80.5374 -0.000225776 -0.000220916 2.21857e-005 -0.000956226 0.000122904 -2.73326e-005 -66.7416 80.4058 67.2171 -0.000437132 1.59523e-005 -2.73296e-005 -0.000136603 -0.000109282 -5.46535e-005 -6.42159 81.2158 8.01779 -0.000218567 1.69074e-005 0.000212131 0.000901583 -0.000184803 -0.000218578 -59.9282 75.5373 58.5147 -9.60819 1.78073 2.72518 -167.277 84.4999 48.8109 -178.774 -17.0317 -2.64017 7.08246e-006 -0.222158 2.90665e-005 -3.91462 -44.3436 -1.55287 3.68732e-006 -66.5321 1.38349e-005 11.9182 1.50426 14.3446 -72.0648 39.0385 39.3397 33.3638 2.10361 14.835 0.588946 0.308273 6.35287 -99.6409 81.413 100.35 -0.0181409 3.00746e-005 -0.117315 -0.124139 0.00241113 -0.799296 -79.8382 79.5773 80.5374 -0.000260656 -0.000218571 2.35963e-005 -0.00095624 0.00012299 -2.72857e-005 -66.7416 80.4058 67.2171 -0.000437142 1.48774e-005 -2.72945e-005 -0.000136617 -0.000109288 -5.46059e-005 -6.42159 81.2158 8.01779 -0.000218574 1.95785e-005 0.000212324 0.000901573 -0.000191246 -0.000218529 0.000811311 0.56661 89.91 -18.0709 -16.1881 -20.1131 -4.37521e-006 -12.6061 -4.69395e-007 30.0504 14.7793 -0.0128096 5.10721e-007 22.1128 5.94174e-007 -62.6537 7.32939 -5.15362 -35.7615 -0.758613 0.0374451 -180 -0.566579 -90.09 -11.2144 4.5392 -4.34376 3.31549e-006 9.87727 -2.16955e-007 26.2167 -3.36488 -0.608234 1.8014e-007 -5.096 -6.23146e-007 -65.1876 -4.85713 1.95088 -35.4947 -0.00047603 1.86187e-006 
1.34101 174.859 16.1913 102.769 -86.822 104.187 -180 4.29621e-031 -90 -0.747673 -0.280748 0.0623296 -1.49507 -0.562723 0.120993 -1.49507 -0.562286 0.121004 25.8255 2.09235 5.22676 -17.0814 2.16903 -0.297079 120.092 75.5343 58.4939 -12.6377 -8.61626 -1.21649 -167.277 84.4999 48.8109 164.384 -11.2306 -11.6996 8.68058e-006 8.07108 3.11153e-005 -0.764414 -40.5641 -1.16099 3.489e-006 -60.7909 2.51647e-006 3.74245 0.612691 18.6123 -72.0648 39.0385 39.3397 33.3638 2.10362 14.835 0.588947 0.308273 6.35287 -99.6409 81.413 100.35 -0.0181409 2.77855e-005 -0.117315 -0.124139 0.00241113 -0.799296 -79.8382 79.5773 80.5374 -0.000225776 -0.000220916 2.21857e-005 -0.000956226 0.000122904 -2.73326e-005 -66.7416 80.4058 67.2171 -0.000437132 1.59523e-005 -2.73296e-005 -0.000136603 -0.000109282 -5.46535e-005 -6.42159 81.2158 8.01779 -0.000218567 1.69074e-005 0.000212131 0.000901583 -0.000184803 -0.000218578 -59.9282 75.5373 58.5147 -9.32193 1.86953 2.70333 -167.277 84.4999 48.8109 -179.271 -17.7493 -5.13781 7.09518e-006 -0.247228 2.90665e-005 -3.89581 -44.0376 -1.53015 3.41379e-006 -66.0726 1.35844e-005 9.38974 1.45038 17.5358 -72.0648 39.0385 39.3397 33.3638 2.10361 14.835 0.588946 0.308273 6.35287 -99.6409 81.413 100.35 -0.0181409 3.00746e-005 -0.117315 -0.124139 0.00241113 -0.799296 -79.8382 79.5773 80.5374 -0.000260656 -0.000218571 2.35963e-005 -0.00095624 0.00012299 -2.72857e-005 -66.7416 80.4058 67.2171 -0.000437142 1.48774e-005 -2.72945e-005 -0.000136617 -0.000109288 -5.46059e-005 -6.42159 81.2158 8.01779 -0.000218574 1.95785e-005 0.000212324 0.000901573 -0.000191246 -0.000218529 0.000811311 0.56661 89.91 -18.0578 -16.2222 -20.1995 -4.37519e-006 -12.6031 -4.69389e-007 30.0713 14.8354 -0.0128271 5.0978e-007 22.1968 5.94528e-007 -62.6576 7.30279 -5.13731 -35.765 -0.768621 0.0378938 -180 -0.566579 -90.09 -11.0974 4.56004 -4.26384 3.31543e-006 9.86137 -2.16944e-007 26.1966 -3.40035 -0.658487 1.79559e-007 -5.14922 -6.23198e-007 -65.2294 -4.90276 1.97307 -35.4947 -0.000476109 1.86375e-006 
1.31335 174.861 16.2616 103.076 -86.7323 104.519 -180 4.29621e-031 -90 -0.792453 -0.265799 0.0802533 -1.58456 -0.53312 0.156825 -1.58456 -0.532683 0.156837 25.8953 2.08915 5.00953 -17.0324 2.14893 -0.229806 120.092 75.5343 58.4939 -12.5975 -8.57216 -1.20075 -167.277 84.4999 48.8109 164.708 -11.2437 -13.15 8.45628e-006 8.47959 3.11476e-005 -4.19971 -40.7997 -6.33438 3.54479e-006 -61.3989 2.56531e-006 2.82362 0.500683 20.1023 -72.0648 39.0385 39.3397 33.3638 2.10362 14.835 0.588947 0.308273 6.35287 -99.6409 81.413 100.35 -0.0181409 2.77855e-005 -0.117315 -0.124139 0.00241113 -0.799296 -79.8382 79.5773 80.5374 -0.000225776 -0.000220916 2.21857e-005 -0.000956226 0.000122904 -2.73326e-005 -66.7416 80.4058 67.2171 -0.000437132 1.59523e-005 -2.73296e-005 -0.000136603 -0.000109282 -5.46535e-005 -6.42159 81.2158 8.01779 -0.000218567 1.69074e-005 0.000212131 0.000901583 -0.000184803 -0.000218578 -59.9282 75.5373 58.5147 -8.99761 2.01264 2.69489 -167.277 84.4999 48.8109 179.809 -18.4999 -8.11663 7.09423e-006 -0.245357 2.90665e-005 -3.50163 -43.6859 -1.50991 3.10686e-006 -65.5366 1.33044e-005 6.83691 1.28646 21.3609 -72.0648 39.0385 39.3397 33.3638 2.10361 14.835 0.588946 0.308273 6.35287 -99.6409 81.413 100.35 -0.0181409 3.00746e-005 -0.117315 -0.124139 0.00241113 -0.799296 -79.8382 79.5773 80.5374 -0.000260656 -0.000218571 2.35963e-005 -0.00095624 0.00012299 -2.72857e-005 -66.7416 80.4058 67.2171 -0.000437142 1.48774e-005 -2.72945e-005 -0.000136617 -0.000109288 -5.46059e-005 -6.42159 81.2158 8.01779 -0.000218574 1.95785e-005 0.000212324 0.000901573 -0.000191246 -0.000218529 0.000811311 0.56661 89.91 -18.0134 -16.1837 -20.2201 -4.37447e-006 -12.5177 -4.69233e-007 30.0779 14.8285 -0.0128405 5.09895e-007 22.1866 5.94485e-007 -62.7039 7.29523 -5.13039 -35.7526 -0.733253 0.0363086 -180 -0.566579 -90.09 -10.9673 4.60996 -4.16951 3.3155e-006 9.87962 -2.16956e-007 26.177 -3.47756 -0.709209 1.78293e-007 -5.26507 -6.23313e-007 -65.3338 -4.9627 1.99757 -35.4947 -0.000476174 1.86562e-006 
1.29433 174.864 16.3287 103.481 -86.6526 104.936 -180 4.29621e-031 -90 -0.828126 -0.257968 0.0920325 -1.65586 -0.517676 0.180329 -1.65586 -0.517239 0.180342 25.8241 2.10506 4.81206 -16.864 2.17159 -0.242453 120.092 75.5343 58.4939 -12.4508 -8.57485 -1.21639 -167.277 84.4999 48.8109 164.945 -10.9641 -14.4614 8.01861e-006 9.27418 3.12151e-005 -8.15694 -40.9721 -12.2174 3.63962e-006 -62.3809 2.64896e-006 2.13857 0.402994 21.3439 -72.0648 39.0385 39.3397 33.3638 2.10362 14.835 0.588947 0.308273 6.35287 -99.6409 81.413 100.35 -0.0181409 2.77855e-005 -0.117315 -0.124139 0.00241113 -0.799296 -79.8382 79.5773 80.5374 -0.000225776 -0.000220916 2.21857e-005 -0.000956226 0.000122904 -2.73326e-005 -66.7416 80.4058 67.2171 -0.000437132 1.59523e-005 -2.73296e-005 -0.000136603 -0.000109282 -5.46535e-005 -6.42159 81.2158 8.01779 -0.000218567 1.69074e-005 0.000212131 0.000901583 -0.000184803 -0.000218578 -59.9282 75.5373 58.5147 -8.70458 2.16262 2.69468 -167.277 84.4999 48.8109 179.824 -19.4399 -11.0448 7.1344e-006 -0.324533 2.90667e-005 -5.479 -43.1789 -1.52572 2.71922e-006 -64.8264 1.29526e-005 3.72129 0.770435 24.2761 -72.0648 39.0385 39.3397 33.3638 2.10361 14.835 0.588946 0.308273 6.35287 -99.6409 81.413 100.35 -0.0181409 3.00746e-005 -0.117315 -0.124139 0.00241113 -0.799296 -79.8382 79.5773 80.5374 -0.000260656 -0.000218571 2.35963e-005 -0.00095624 0.00012299 -2.72857e-005 -66.7416 80.4058 67.2171 -0.000437142 1.48774e-005 -2.72945e-005 -0.000136617 -0.000109288 -5.46059e-005 -6.42159 81.2158 8.01779 -0.000218574 1.95785e-005 0.000212324 0.000901573 -0.000191246 -0.000218529 0.000811311 0.56661 89.91 -17.932 -16.1159 -20.1978 -4.3735e-006 -12.4013 -4.69023e-007 30.0614 14.7938 -0.0128518 5.10478e-007 22.1345 5.94265e-007 -62.7593 7.24993 -5.10022 -35.7405 -0.698924 0.0347617 -180 -0.566579 -90.09 -10.8362 4.65633 -4.06076 3.31551e-006 9.88222 -2.16958e-007 26.1659 -3.5508 -0.826674 1.77091e-007 -5.37507 -6.23425e-007 -65.4396 -5.03488 2.02876 -35.4947 -0.000476227 1.86748e-006 
